<?xml version="1.0" encoding="UTF-8"?><!DOCTYPE svg PUBLIC "-//W3C//DTD SVG 1.1//EN" "http://www.w3.org/Graphics/SVG/1.1/DTD/svg11.dtd"><svg xmlns="http://www.w3.org/2000/svg"><defs><style type="text/css" id="current-color-scheme">.ColorScheme-Text{color:#555555;}</style></defs><g id="22-22-AcAdapter" transform="translate(0, 0)"><rect x="0" y="0" width="22" height="22" opacity="0"/>
    <path d="M10 8v3.5L5 11l7 3v-3.5l5 .5z" class="ColorScheme-Text" style="fill:currentColor"/>
</g><g id="22-22-Battery" transform="translate(22, 0)"><rect x="0" y="0" width="22" height="22" opacity="0"/>
    <path d="M4 4C2.347 4 1 5.347 1 7v8c0 1.653 1.347 3 3 3h14c1.653 0 3-1.347 3-3v-2c.554 0 1-.446 1-1v-2c0-.554-.446-1-1-1V7c0-1.653-1.347-3-3-3zm0 1h14c1.117 0 2 .883 2 2v8c0 1.117-.883 2-2 2H4c-1.117 0-2-.883-2-2V7c0-1.117.883-2 2-2z" class="ColorScheme-Text" style="fill:currentColor"/>
</g><g id="22-22-Fill0" transform="translate(44, 0)"><rect x="0" y="0" width="22" height="22" opacity="0"/>
    <path d="M4 4C2.347 4 1 5.347 1 7v8c0 1.653 1.347 3 3 3h14c1.653 0 3-1.347 3-3v-2c.554 0 1-.446 1-1v-2c0-.554-.446-1-1-1V7c0-1.653-1.347-3-3-3zm0 1h14c1.117 0 2 .883 2 2v8c0 1.117-.883 2-2 2H4c-1.117 0-2-.883-2-2V7c0-1.117.883-2 2-2z" fill="#e0281f"/>
</g><g id="22-22-Fill10" transform="translate(66, 0)"><rect x="0" y="0" width="22" height="22" opacity="0"/>
    <rect width="2" height="10" x="3" y="6" rx="1" ry="1" fill="#e0281f"/>
    <path d="M4 4C2.347 4 1 5.347 1 7v8c0 1.653 1.347 3 3 3h14c1.653 0 3-1.347 3-3v-2c.554 0 1-.446 1-1v-2c0-.554-.446-1-1-1V7c0-1.653-1.347-3-3-3zm0 1h14c1.117 0 2 .883 2 2v8c0 1.117-.883 2-2 2H4c-1.117 0-2-.883-2-2V7c0-1.117.883-2 2-2z" class="ColorScheme-Text" style="fill:currentColor"/>
</g><g id="22-22-Fill100" transform="translate(88, 0)"><rect x="0" y="0" width="22" height="22" opacity="0"/>
    <rect width="16" height="10" x="3" y="6" rx="1" ry="1" fill="#73ba25"/>
    <path d="M4 4C2.347 4 1 5.347 1 7v8c0 1.653 1.347 3 3 3h14c1.653 0 3-1.347 3-3v-2c.554 0 1-.446 1-1v-2c0-.554-.446-1-1-1V7c0-1.653-1.347-3-3-3zm0 1h14c1.117 0 2 .883 2 2v8c0 1.117-.883 2-2 2H4c-1.117 0-2-.883-2-2V7c0-1.117.883-2 2-2z" class="ColorScheme-Text" style="fill:currentColor"/>
</g><g id="22-22-Fill20" transform="translate(110, 0)"><rect x="0" y="0" width="22" height="22" opacity="0"/>
    <rect width="3" height="10" x="3" y="6" rx="1" ry="1" fill="#f0c024"/>
    <path d="M4 4C2.347 4 1 5.347 1 7v8c0 1.653 1.347 3 3 3h14c1.653 0 3-1.347 3-3v-2c.554 0 1-.446 1-1v-2c0-.554-.446-1-1-1V7c0-1.653-1.347-3-3-3zm0 1h14c1.117 0 2 .883 2 2v8c0 1.117-.883 2-2 2H4c-1.117 0-2-.883-2-2V7c0-1.117.883-2 2-2z" class="ColorScheme-Text" style="fill:currentColor"/>
</g><g id="22-22-Fill30" transform="translate(132, 0)"><rect x="0" y="0" width="22" height="22" opacity="0"/>
    <rect width="5" height="10" x="3" y="6" rx="1" ry="1" fill="#f0c024"/>
    <path d="M4 4C2.347 4 1 5.347 1 7v8c0 1.653 1.347 3 3 3h14c1.653 0 3-1.347 3-3v-2c.554 0 1-.446 1-1v-2c0-.554-.446-1-1-1V7c0-1.653-1.347-3-3-3zm0 1h14c1.117 0 2 .883 2 2v8c0 1.117-.883 2-2 2H4c-1.117 0-2-.883-2-2V7c0-1.117.883-2 2-2z" class="ColorScheme-Text" style="fill:currentColor"/>
</g><g id="22-22-Fill40" transform="translate(154, 0)"><rect x="0" y="0" width="22" height="22" opacity="0"/>
    <rect width="6" height="10" x="3" y="6" rx="1" ry="1" fill="#73ba25"/>
    <path d="M4 4C2.347 4 1 5.347 1 7v8c0 1.653 1.347 3 3 3h14c1.653 0 3-1.347 3-3v-2c.554 0 1-.446 1-1v-2c0-.554-.446-1-1-1V7c0-1.653-1.347-3-3-3zm0 1h14c1.117 0 2 .883 2 2v8c0 1.117-.883 2-2 2H4c-1.117 0-2-.883-2-2V7c0-1.117.883-2 2-2z" class="ColorScheme-Text" style="fill:currentColor"/>
</g><g id="22-22-Fill50" transform="translate(176, 0)"><rect x="0" y="0" width="22" height="22" opacity="0"/>
    <rect width="8" height="10" x="3" y="6" rx="1" ry="1" fill="#73ba25"/>
    <path d="M4 4C2.347 4 1 5.347 1 7v8c0 1.653 1.347 3 3 3h14c1.653 0 3-1.347 3-3v-2c.554 0 1-.446 1-1v-2c0-.554-.446-1-1-1V7c0-1.653-1.347-3-3-3zm0 1h14c1.117 0 2 .883 2 2v8c0 1.117-.883 2-2 2H4c-1.117 0-2-.883-2-2V7c0-1.117.883-2 2-2z" class="ColorScheme-Text" style="fill:currentColor"/>
</g><g id="22-22-Fill60" transform="translate(198, 0)"><rect x="0" y="0" width="22" height="22" opacity="0"/>
    <rect width="10" height="10" x="3" y="6" rx="1" ry="1" fill="#73ba25"/>
    <path d="M4 4C2.347 4 1 5.347 1 7v8c0 1.653 1.347 3 3 3h14c1.653 0 3-1.347 3-3v-2c.554 0 1-.446 1-1v-2c0-.554-.446-1-1-1V7c0-1.653-1.347-3-3-3zm0 1h14c1.117 0 2 .883 2 2v8c0 1.117-.883 2-2 2H4c-1.117 0-2-.883-2-2V7c0-1.117.883-2 2-2z" class="ColorScheme-Text" style="fill:currentColor"/>
</g><g id="22-22-Fill70" transform="translate(220, 0)"><rect x="0" y="0" width="22" height="22" opacity="0"/>
    <rect width="11" height="10" x="3" y="6" rx="1" ry="1" fill="#73ba25"/>
    <path d="M4 4C2.347 4 1 5.347 1 7v8c0 1.653 1.347 3 3 3h14c1.653 0 3-1.347 3-3v-2c.554 0 1-.446 1-1v-2c0-.554-.446-1-1-1V7c0-1.653-1.347-3-3-3zm0 1h14c1.117 0 2 .883 2 2v8c0 1.117-.883 2-2 2H4c-1.117 0-2-.883-2-2V7c0-1.117.883-2 2-2z" class="ColorScheme-Text" style="fill:currentColor"/>
</g><g id="22-22-Fill80" transform="translate(242, 0)"><rect x="0" y="0" width="22" height="22" opacity="0"/>
    <rect width="13" height="10" x="3" y="6" rx="1" ry="1" fill="#73ba25"/>
    <path d="M4 4C2.347 4 1 5.347 1 7v8c0 1.653 1.347 3 3 3h14c1.653 0 3-1.347 3-3v-2c.554 0 1-.446 1-1v-2c0-.554-.446-1-1-1V7c0-1.653-1.347-3-3-3zm0 1h14c1.117 0 2 .883 2 2v8c0 1.117-.883 2-2 2H4c-1.117 0-2-.883-2-2V7c0-1.117.883-2 2-2z" class="ColorScheme-Text" style="fill:currentColor"/>
</g><g id="22-22-Fill90" transform="translate(264, 0)"><rect x="0" y="0" width="22" height="22" opacity="0"/>
    <rect width="15" height="10" x="3" y="6" rx="1" ry="1" fill="#73ba25"/>
    <path d="M4 4C2.347 4 1 5.347 1 7v8c0 1.653 1.347 3 3 3h14c1.653 0 3-1.347 3-3v-2c.554 0 1-.446 1-1v-2c0-.554-.446-1-1-1V7c0-1.653-1.347-3-3-3zm0 1h14c1.117 0 2 .883 2 2v8c0 1.117-.883 2-2 2H4c-1.117 0-2-.883-2-2V7c0-1.117.883-2 2-2z" class="ColorScheme-Text" style="fill:currentColor"/>
</g><g id="22-22-Unavailable" transform="translate(286, 0)"><rect x="0" y="0" width="22" height="22" opacity="0"/>
    <rect width="8" height="8" x="14" y="14" rx="1" ry="1" fill="#e0281f"/>
    <path d="M15.494 14.994a.5.5 0 0 0-.348.86L17.293 18l-2.147 2.146a.5.5 0 1 0 .708.708L18 18.707l2.146 2.147a.5.5 0 1 0 .708-.708L18.707 18l2.147-2.146a.5.5 0 0 0-.364-.858.5.5 0 0 0-.344.15L18 17.293l-2.146-2.147a.5.5 0 0 0-.36-.152z" fill="#fff" fill-rule="evenodd"/>
</g><g id="22-22-battery-ups" transform="translate(308, 0)"><rect x="0" y="0" width="22" height="22" opacity="0"/>
    <path d="M18.492 2.992A.5.5 0 0 0 18 3.5V5H.5a.5.5 0 0 0-.5.5v12a.5.5 0 0 0 .5.5h21a.5.5 0 0 0 .5-.5v-12a.5.5 0 0 0-.5-.5H21V3.5a.5.5 0 0 0-.508-.508A.5.5 0 0 0 20 3.5V5h-1V3.5a.5.5 0 0 0-.508-.508zM1 6h17.42a.5.5 0 0 0 .162 0h1.838a.5.5 0 0 0 .162 0H21v11H1V6zm16.492.992A.5.5 0 0 0 17 7.5v2a.5.5 0 1 0 1 0v-2a.5.5 0 0 0-.508-.508zm-1.717 1.002a.5.5 0 0 0-.441.256 2.507 2.507 0 0 0 .559 3.166 2.507 2.507 0 0 0 3.214 0 2.507 2.507 0 0 0 .559-3.166.5.5 0 1 0-.867.5 1.494 1.494 0 0 1-.334 1.898c-.56.47-1.37.47-1.93 0-.56-.47-.7-1.265-.334-1.898a.5.5 0 0 0-.426-.756zm-13.283.998A.5.5 0 0 0 2 9.5v6a.5.5 0 1 0 1 0v-6a.5.5 0 0 0-.508-.508zm2 0A.5.5 0 0 0 4 9.5v6a.5.5 0 1 0 1 0v-6a.5.5 0 0 0-.508-.508zm2 0A.5.5 0 0 0 6 9.5v6a.5.5 0 1 0 1 0v-6a.5.5 0 0 0-.508-.508zm2 0A.5.5 0 0 0 8 9.5v6a.5.5 0 1 0 1 0v-6a.5.5 0 0 0-.508-.508z" class="ColorScheme-Text" style="fill:currentColor"/>
</g></svg>