<?xml version="1.0" encoding="UTF-8"?><!DOCTYPE svg PUBLIC "-//W3C//DTD SVG 1.1//EN" "http://www.w3.org/Graphics/SVG/1.1/DTD/svg11.dtd"><svg xmlns="http://www.w3.org/2000/svg"><g id="22-22-AcAdapter" transform="translate(0, 0)"><rect x="0" y="0" width="22" height="22" opacity="0"/><path style="line-height:normal;font-variant-ligatures:normal;font-variant-position:normal;font-variant-caps:normal;font-variant-numeric:normal;font-variant-alternates:normal;font-feature-settings:normal;text-indent:0;text-align:start;text-decoration-line:none;text-decoration-style:solid;text-decoration-color:#000;text-transform:none;text-orientation:mixed;shape-padding:0;isolation:auto;mix-blend-mode:normal" d="M10 8v3.5L5 11l7 3v-3.5l5 .5z" color="#000" font-weight="400" font-family="sans-serif" white-space="normal" overflow="visible" fill="#555"/></g><g id="22-22-Battery" transform="translate(22, 0)"><rect x="0" y="0" width="22" height="22" opacity="0"/><path style="line-height:normal;font-variant-ligatures:normal;font-variant-position:normal;font-variant-caps:normal;font-variant-numeric:normal;font-variant-alternates:normal;font-feature-settings:normal;text-indent:0;text-align:start;text-decoration-line:none;text-decoration-style:solid;text-decoration-color:#000;text-transform:none;text-orientation:mixed;shape-padding:0;isolation:auto;mix-blend-mode:normal" d="M4 4C2.347 4 1 5.347 1 7v8c0 1.653 1.347 3 3 3h14c1.653 0 3-1.347 3-3v-2c.554 0 1-.446 1-1v-2c0-.554-.446-1-1-1V7c0-1.653-1.347-3-3-3H4zm0 1h14c1.117 0 2 .883 2 2v8c0 1.117-.883 2-2 2H4c-1.117 0-2-.883-2-2V7c0-1.117.883-2 2-2z" color="#000" font-weight="400" font-family="sans-serif" white-space="normal" overflow="visible" fill="#555"/></g><g id="22-22-Fill0" transform="translate(44, 0)"><rect x="0" y="0" width="22" height="22" opacity="0"/><path style="line-height:normal;font-variant-ligatures:normal;font-variant-position:normal;font-variant-caps:normal;font-variant-numeric:normal;font-variant-alternates:normal;font-feature-settings:normal;text-indent:0;text-align:start;text-decoration-line:none;text-decoration-style:solid;text-decoration-color:#000;text-transform:none;text-orientation:mixed;shape-padding:0;isolation:auto;mix-blend-mode:normal" d="M4 4C2.347 4 1 5.347 1 7v8c0 1.653 1.347 3 3 3h14c1.653 0 3-1.347 3-3v-2c.554 0 1-.446 1-1v-2c0-.554-.446-1-1-1V7c0-1.653-1.347-3-3-3H4zm0 1h14c1.117 0 2 .883 2 2v8c0 1.117-.883 2-2 2H4c-1.117 0-2-.883-2-2V7c0-1.117.883-2 2-2z" color="#000" font-weight="400" font-family="sans-serif" white-space="normal" overflow="visible" fill="red"/></g><g id="22-22-Fill10" transform="translate(66, 0)"><rect x="0" y="0" width="22" height="22" opacity="0"/><g transform="translate(0 -291.18)"><rect width="2" height="10" x="3" y="297.179" rx="1" ry="1" fill="red"/><path style="line-height:normal;font-variant-ligatures:normal;font-variant-position:normal;font-variant-caps:normal;font-variant-numeric:normal;font-variant-alternates:normal;font-feature-settings:normal;text-indent:0;text-align:start;text-decoration-line:none;text-decoration-style:solid;text-decoration-color:#000;text-transform:none;text-orientation:mixed;shape-padding:0;isolation:auto;mix-blend-mode:normal" d="M4 295.18c-1.653 0-3 1.346-3 3v8c0 1.653 1.347 3 3 3h14c1.653 0 3-1.347 3-3v-2c.554 0 1-.447 1-1v-2c0-.555-.446-1-1-1v-2c0-1.654-1.347-3-3-3H4zm0 1h14c1.117 0 2 .883 2 2v8c0 1.116-.883 2-2 2H4c-1.117 0-2-.884-2-2v-8c0-1.117.883-2 2-2z" color="#000" font-weight="400" font-family="sans-serif" white-space="normal" overflow="visible" fill="#555"/></g></g><g id="22-22-Fill100" transform="translate(88, 0)"><rect x="0" y="0" width="22" height="22" opacity="0"/><g transform="translate(0 -291.18)"><rect width="16" height="10" x="3" y="297.179" rx="1" ry="1" fill="#73ba25"/><path style="line-height:normal;font-variant-ligatures:normal;font-variant-position:normal;font-variant-caps:normal;font-variant-numeric:normal;font-variant-alternates:normal;font-feature-settings:normal;text-indent:0;text-align:start;text-decoration-line:none;text-decoration-style:solid;text-decoration-color:#000;text-transform:none;text-orientation:mixed;shape-padding:0;isolation:auto;mix-blend-mode:normal" d="M4 295.18c-1.653 0-3 1.346-3 3v8c0 1.653 1.347 3 3 3h14c1.653 0 3-1.347 3-3v-2c.554 0 1-.447 1-1v-2c0-.555-.446-1-1-1v-2c0-1.654-1.347-3-3-3H4zm0 1h14c1.117 0 2 .883 2 2v8c0 1.116-.883 2-2 2H4c-1.117 0-2-.884-2-2v-8c0-1.117.883-2 2-2z" color="#000" font-weight="400" font-family="sans-serif" white-space="normal" overflow="visible" fill="#555"/></g></g><g id="22-22-Fill20" transform="translate(110, 0)"><rect x="0" y="0" width="22" height="22" opacity="0"/><g transform="translate(0 -291.18)"><rect width="3" height="10" x="3" y="297.179" rx="1" ry="1" fill="#fc0"/><path style="line-height:normal;font-variant-ligatures:normal;font-variant-position:normal;font-variant-caps:normal;font-variant-numeric:normal;font-variant-alternates:normal;font-feature-settings:normal;text-indent:0;text-align:start;text-decoration-line:none;text-decoration-style:solid;text-decoration-color:#000;text-transform:none;text-orientation:mixed;shape-padding:0;isolation:auto;mix-blend-mode:normal" d="M4 295.18c-1.653 0-3 1.346-3 3v8c0 1.653 1.347 3 3 3h14c1.653 0 3-1.347 3-3v-2c.554 0 1-.447 1-1v-2c0-.555-.446-1-1-1v-2c0-1.654-1.347-3-3-3H4zm0 1h14c1.117 0 2 .883 2 2v8c0 1.116-.883 2-2 2H4c-1.117 0-2-.884-2-2v-8c0-1.117.883-2 2-2z" color="#000" font-weight="400" font-family="sans-serif" white-space="normal" overflow="visible" fill="#555"/></g></g><g id="22-22-Fill30" transform="translate(132, 0)"><rect x="0" y="0" width="22" height="22" opacity="0"/><g transform="translate(0 -291.18)"><rect width="5" height="10" x="3" y="297.179" rx="1" ry="1" fill="#fc0"/><path style="line-height:normal;font-variant-ligatures:normal;font-variant-position:normal;font-variant-caps:normal;font-variant-numeric:normal;font-variant-alternates:normal;font-feature-settings:normal;text-indent:0;text-align:start;text-decoration-line:none;text-decoration-style:solid;text-decoration-color:#000;text-transform:none;text-orientation:mixed;shape-padding:0;isolation:auto;mix-blend-mode:normal" d="M4 295.18c-1.653 0-3 1.346-3 3v8c0 1.653 1.347 3 3 3h14c1.653 0 3-1.347 3-3v-2c.554 0 1-.447 1-1v-2c0-.555-.446-1-1-1v-2c0-1.654-1.347-3-3-3H4zm0 1h14c1.117 0 2 .883 2 2v8c0 1.116-.883 2-2 2H4c-1.117 0-2-.884-2-2v-8c0-1.117.883-2 2-2z" color="#000" font-weight="400" font-family="sans-serif" white-space="normal" overflow="visible" fill="#555"/></g></g><g id="22-22-Fill40" transform="translate(154, 0)"><rect x="0" y="0" width="22" height="22" opacity="0"/><g transform="translate(0 -291.18)"><rect width="6" height="10" x="3" y="297.179" rx="1" ry="1" fill="#73ba25"/><path style="line-height:normal;font-variant-ligatures:normal;font-variant-position:normal;font-variant-caps:normal;font-variant-numeric:normal;font-variant-alternates:normal;font-feature-settings:normal;text-indent:0;text-align:start;text-decoration-line:none;text-decoration-style:solid;text-decoration-color:#000;text-transform:none;text-orientation:mixed;shape-padding:0;isolation:auto;mix-blend-mode:normal" d="M4 295.18c-1.653 0-3 1.346-3 3v8c0 1.653 1.347 3 3 3h14c1.653 0 3-1.347 3-3v-2c.554 0 1-.447 1-1v-2c0-.555-.446-1-1-1v-2c0-1.654-1.347-3-3-3H4zm0 1h14c1.117 0 2 .883 2 2v8c0 1.116-.883 2-2 2H4c-1.117 0-2-.884-2-2v-8c0-1.117.883-2 2-2z" color="#000" font-weight="400" font-family="sans-serif" white-space="normal" overflow="visible" fill="#555"/></g></g><g id="22-22-Fill50" transform="translate(176, 0)"><rect x="0" y="0" width="22" height="22" opacity="0"/><g transform="translate(0 -291.18)"><rect width="8" height="10" x="3" y="297.179" rx="1" ry="1" fill="#73ba25"/><path style="line-height:normal;font-variant-ligatures:normal;font-variant-position:normal;font-variant-caps:normal;font-variant-numeric:normal;font-variant-alternates:normal;font-feature-settings:normal;text-indent:0;text-align:start;text-decoration-line:none;text-decoration-style:solid;text-decoration-color:#000;text-transform:none;text-orientation:mixed;shape-padding:0;isolation:auto;mix-blend-mode:normal" d="M4 295.18c-1.653 0-3 1.346-3 3v8c0 1.653 1.347 3 3 3h14c1.653 0 3-1.347 3-3v-2c.554 0 1-.447 1-1v-2c0-.555-.446-1-1-1v-2c0-1.654-1.347-3-3-3H4zm0 1h14c1.117 0 2 .883 2 2v8c0 1.116-.883 2-2 2H4c-1.117 0-2-.884-2-2v-8c0-1.117.883-2 2-2z" color="#000" font-weight="400" font-family="sans-serif" white-space="normal" overflow="visible" fill="#555"/></g></g><g id="22-22-Fill60" transform="translate(198, 0)"><rect x="0" y="0" width="22" height="22" opacity="0"/><g transform="translate(0 -291.18)"><rect width="10" height="10" x="3" y="297.179" rx="1" ry="1" fill="#73ba25"/><path style="line-height:normal;font-variant-ligatures:normal;font-variant-position:normal;font-variant-caps:normal;font-variant-numeric:normal;font-variant-alternates:normal;font-feature-settings:normal;text-indent:0;text-align:start;text-decoration-line:none;text-decoration-style:solid;text-decoration-color:#000;text-transform:none;text-orientation:mixed;shape-padding:0;isolation:auto;mix-blend-mode:normal" d="M4 295.18c-1.653 0-3 1.346-3 3v8c0 1.653 1.347 3 3 3h14c1.653 0 3-1.347 3-3v-2c.554 0 1-.447 1-1v-2c0-.555-.446-1-1-1v-2c0-1.654-1.347-3-3-3H4zm0 1h14c1.117 0 2 .883 2 2v8c0 1.116-.883 2-2 2H4c-1.117 0-2-.884-2-2v-8c0-1.117.883-2 2-2z" color="#000" font-weight="400" font-family="sans-serif" white-space="normal" overflow="visible" fill="#555"/></g></g><g id="22-22-Fill70" transform="translate(220, 0)"><rect x="0" y="0" width="22" height="22" opacity="0"/><g transform="translate(0 -291.18)"><rect width="11" height="10" x="3" y="297.179" rx="1" ry="1" fill="#73ba25"/><path style="line-height:normal;font-variant-ligatures:normal;font-variant-position:normal;font-variant-caps:normal;font-variant-numeric:normal;font-variant-alternates:normal;font-feature-settings:normal;text-indent:0;text-align:start;text-decoration-line:none;text-decoration-style:solid;text-decoration-color:#000;text-transform:none;text-orientation:mixed;shape-padding:0;isolation:auto;mix-blend-mode:normal" d="M4 295.18c-1.653 0-3 1.346-3 3v8c0 1.653 1.347 3 3 3h14c1.653 0 3-1.347 3-3v-2c.554 0 1-.447 1-1v-2c0-.555-.446-1-1-1v-2c0-1.654-1.347-3-3-3H4zm0 1h14c1.117 0 2 .883 2 2v8c0 1.116-.883 2-2 2H4c-1.117 0-2-.884-2-2v-8c0-1.117.883-2 2-2z" color="#000" font-weight="400" font-family="sans-serif" white-space="normal" overflow="visible" fill="#555"/></g></g><g id="22-22-Fill80" transform="translate(242, 0)"><rect x="0" y="0" width="22" height="22" opacity="0"/><g transform="translate(0 -291.18)"><rect width="13" height="10" x="3" y="297.179" rx="1" ry="1" fill="#73ba25"/><path style="line-height:normal;font-variant-ligatures:normal;font-variant-position:normal;font-variant-caps:normal;font-variant-numeric:normal;font-variant-alternates:normal;font-feature-settings:normal;text-indent:0;text-align:start;text-decoration-line:none;text-decoration-style:solid;text-decoration-color:#000;text-transform:none;text-orientation:mixed;shape-padding:0;isolation:auto;mix-blend-mode:normal" d="M4 295.18c-1.653 0-3 1.346-3 3v8c0 1.653 1.347 3 3 3h14c1.653 0 3-1.347 3-3v-2c.554 0 1-.447 1-1v-2c0-.555-.446-1-1-1v-2c0-1.654-1.347-3-3-3H4zm0 1h14c1.117 0 2 .883 2 2v8c0 1.116-.883 2-2 2H4c-1.117 0-2-.884-2-2v-8c0-1.117.883-2 2-2z" color="#000" font-weight="400" font-family="sans-serif" white-space="normal" overflow="visible" fill="#555"/></g></g><g id="22-22-Fill90" transform="translate(264, 0)"><rect x="0" y="0" width="22" height="22" opacity="0"/><g transform="translate(0 -291.18)"><rect width="15" height="10" x="3" y="297.179" rx="1" ry="1" fill="#73ba25"/><path style="line-height:normal;font-variant-ligatures:normal;font-variant-position:normal;font-variant-caps:normal;font-variant-numeric:normal;font-variant-alternates:normal;font-feature-settings:normal;text-indent:0;text-align:start;text-decoration-line:none;text-decoration-style:solid;text-decoration-color:#000;text-transform:none;text-orientation:mixed;shape-padding:0;isolation:auto;mix-blend-mode:normal" d="M4 295.18c-1.653 0-3 1.346-3 3v8c0 1.653 1.347 3 3 3h14c1.653 0 3-1.347 3-3v-2c.554 0 1-.447 1-1v-2c0-.555-.446-1-1-1v-2c0-1.654-1.347-3-3-3H4zm0 1h14c1.117 0 2 .883 2 2v8c0 1.116-.883 2-2 2H4c-1.117 0-2-.884-2-2v-8c0-1.117.883-2 2-2z" color="#000" font-weight="400" font-family="sans-serif" white-space="normal" overflow="visible" fill="#555"/></g></g><g id="22-22-Unavailable" transform="translate(286, 0)"><rect x="0" y="0" width="22" height="22" opacity="0"/><rect width="8" height="8" x="14" y="14" rx="1" ry="1" fill="#e0281f" fill-opacity=".982"/><path style="line-height:normal;font-variant-ligatures:normal;font-variant-position:normal;font-variant-caps:normal;font-variant-numeric:normal;font-variant-alternates:normal;font-feature-settings:normal;text-indent:0;text-align:start;text-decoration-line:none;text-decoration-style:solid;text-decoration-color:#000;text-transform:none;text-orientation:mixed;shape-padding:0;isolation:auto;mix-blend-mode:normal" d="M15.494 14.994a.5.5 0 0 0-.348.86L17.293 18l-2.147 2.146a.5.5 0 1 0 .708.708L18 18.707l2.146 2.147a.5.5 0 1 0 .708-.708L18.707 18l2.147-2.146a.5.5 0 0 0-.364-.858.5.5 0 0 0-.344.15L18 17.293l-2.146-2.147a.5.5 0 0 0-.36-.152z" color="#000" font-weight="400" font-family="sans-serif" white-space="normal" overflow="visible" fill="#fff" fill-rule="evenodd"/></g></svg>