<?xml version="1.0" encoding="UTF-8" standalone="no"?>
<!-- Created with Inkscape (http://www.inkscape.org/) -->

<svg
   xmlns:dc="http://purl.org/dc/elements/1.1/"
   xmlns:cc="http://creativecommons.org/ns#"
   xmlns:rdf="http://www.w3.org/1999/02/22-rdf-syntax-ns#"
   xmlns:svg="http://www.w3.org/2000/svg"
   xmlns="http://www.w3.org/2000/svg"
   xmlns:sodipodi="http://sodipodi.sourceforge.net/DTD/sodipodi-0.dtd"
   xmlns:inkscape="http://www.inkscape.org/namespaces/inkscape"
   width="22"
   height="22"
   viewBox="0 0 22 22"
   version="1.1"
   id="svg8"
   inkscape:version="0.92.2 5c3e80d, 2017-08-06"
   sodipodi:docname="22-22-battery-ups.svg">
  <defs
     id="defs2" />
  <sodipodi:namedview
     id="base"
     pagecolor="#ffffff"
     bordercolor="#555555"
     borderopacity="1.0"
     inkscape:pageopacity="0.0"
     inkscape:pageshadow="2"
     inkscape:zoom="22.4"
     inkscape:cx="11.683918"
     inkscape:cy="12.23217"
     inkscape:document-units="px"
     inkscape:current-layer="svg8"
     showgrid="true"
     units="px"
     width="22px"
     inkscape:window-width="1920"
     inkscape:window-height="1009"
     inkscape:window-x="0"
     inkscape:window-y="0"
     inkscape:window-maximized="1">
    <inkscape:grid
       type="xygrid"
       id="grid4547"
       empspacing="2"
       dotted="false"
       spacingx="0.5"
       spacingy="0.5" />
  </sodipodi:namedview>
  <metadata
     id="metadata5">
    <rdf:RDF>
      <cc:Work
         rdf:about="">
        <dc:format>image/svg+xml</dc:format>
        <dc:type
           rdf:resource="http://purl.org/dc/dcmitype/StillImage" />
        <dc:title></dc:title>
      </cc:Work>
    </rdf:RDF>
  </metadata>
  <path
     style="color:#000000;font-style:normal;font-variant:normal;font-weight:normal;font-stretch:normal;font-size:medium;line-height:normal;font-family:sans-serif;font-variant-ligatures:normal;font-variant-position:normal;font-variant-caps:normal;font-variant-numeric:normal;font-variant-alternates:normal;font-feature-settings:normal;text-indent:0;text-align:start;text-decoration:none;text-decoration-line:none;text-decoration-style:solid;text-decoration-color:#000000;letter-spacing:normal;word-spacing:normal;text-transform:none;writing-mode:lr-tb;direction:ltr;text-orientation:mixed;dominant-baseline:auto;baseline-shift:baseline;text-anchor:start;white-space:normal;shape-padding:0;clip-rule:nonzero;display:inline;overflow:visible;visibility:visible;opacity:1;isolation:auto;mix-blend-mode:normal;color-interpolation:sRGB;color-interpolation-filters:linearRGB;solid-color:#000000;solid-opacity:1;vector-effect:none;fill:#555555;fill-opacity:1;fill-rule:nonzero;stroke:none;stroke-width:1;stroke-linecap:round;stroke-linejoin:round;stroke-miterlimit:4;stroke-dasharray:none;stroke-dashoffset:0;stroke-opacity:1;color-rendering:auto;image-rendering:auto;shape-rendering:auto;text-rendering:auto;enable-background:accumulate"
     d="M 18.492188 2.9921875 A 0.50005 0.50005 0 0 0 18 3.5 L 18 5 L 0.5 5 A 0.50005 0.50005 0 0 0 0 5.5 L 0 17.5 A 0.50005 0.50005 0 0 0 0.5 18 L 21.5 18 A 0.50005 0.50005 0 0 0 22 17.5 L 22 5.5 A 0.50005 0.50005 0 0 0 21.5 5 L 21 5 L 21 3.5 A 0.50005 0.50005 0 0 0 20.492188 2.9921875 A 0.50005 0.50005 0 0 0 20 3.5 L 20 5 L 19 5 L 19 3.5 A 0.50005 0.50005 0 0 0 18.492188 2.9921875 z M 1 6 L 18.419922 6 A 0.50005 0.50005 0 0 0 18.582031 6 L 20.419922 6 A 0.50005 0.50005 0 0 0 20.582031 6 L 21 6 L 21 17 L 1 17 L 1 6 z M 17.492188 6.9921875 A 0.50005 0.50005 0 0 0 17 7.5 L 17 9.5 A 0.50005 0.50005 0 1 0 18 9.5 L 18 7.5 A 0.50005 0.50005 0 0 0 17.492188 6.9921875 z M 15.775391 7.9941406 A 0.50005 0.50005 0 0 0 15.333984 8.25 C 14.729028 9.2978161 14.96573 10.638298 15.892578 11.416016 C 16.819426 12.193733 18.180574 12.193733 19.107422 11.416016 C 20.03427 10.638298 20.270973 9.2978161 19.666016 8.25 A 0.5005035 0.5005035 0 1 0 18.798828 8.75 C 19.164459 9.3832904 19.025022 10.17839 18.464844 10.648438 C 17.904665 11.118482 17.095335 11.118482 16.535156 10.648438 C 15.974978 10.178392 15.835541 9.3832904 16.201172 8.75 A 0.50005 0.50005 0 0 0 15.775391 7.9941406 z M 2.4921875 8.9921875 A 0.50005 0.50005 0 0 0 2 9.5 L 2 15.5 A 0.50005 0.50005 0 1 0 3 15.5 L 3 9.5 A 0.50005 0.50005 0 0 0 2.4921875 8.9921875 z M 4.4921875 8.9921875 A 0.50005 0.50005 0 0 0 4 9.5 L 4 15.5 A 0.50005 0.50005 0 1 0 5 15.5 L 5 9.5 A 0.50005 0.50005 0 0 0 4.4921875 8.9921875 z M 6.4921875 8.9921875 A 0.50005 0.50005 0 0 0 6 9.5 L 6 15.5 A 0.50005 0.50005 0 1 0 7 15.5 L 7 9.5 A 0.50005 0.50005 0 0 0 6.4921875 8.9921875 z M 8.4921875 8.9921875 A 0.50005 0.50005 0 0 0 8 9.5 L 8 15.5 A 0.50005 0.50005 0 1 0 9 15.5 L 9 9.5 A 0.50005 0.50005 0 0 0 8.4921875 8.9921875 z "
     id="rect900" />
</svg>
